<svg width="158" height="71" viewBox="0 0 158 71" fill="none" xmlns="http://www.w3.org/2000/svg">
<g id="Logo" clip-path="url(#clip0_31157_9567)">
<g id="Group 135">
<path id="Vector" d="M0.000485759 45.1728V3.25837C-0.00978196 2.82805 0.0675566 2.40017 0.227826 2.00111C0.388095 1.60204 0.627868 1.24023 0.93234 0.937985C1.22278 0.636008 1.5715 0.397035 1.95708 0.235723C2.34266 0.0744121 2.75692 -0.00584043 3.17443 -4.25122e-05H21.8682C31.5467 -4.25122e-05 38.5861 1.94654 42.9863 5.83965C47.3865 9.73277 49.5888 15.8451 49.5935 24.1768C49.5935 32.4896 47.3911 38.5879 42.9863 42.4716C38.5814 46.3553 31.5421 48.2972 21.8682 48.2972H3.17443C2.76044 48.3045 2.34912 48.2291 1.96426 48.0753C1.57941 47.9216 1.22869 47.6925 0.93234 47.4015C0.626783 47.1194 0.385322 46.7743 0.22449 46.3896C0.0636579 46.005 -0.0127213 45.5899 0.000485759 45.1728ZM12.6125 38.7407H21.5039C27.5016 38.7407 31.5817 37.6405 33.7445 35.44C35.9072 33.2395 36.9885 29.4781 36.9885 24.1556C36.9885 18.8237 35.9072 15.0623 33.7445 12.8712C31.5817 10.6802 27.5016 9.57527 21.5039 9.55646H12.6125V38.7407Z" fill="#1F1B1C"/>
<path id="Vector_2" d="M67.6143 36.6179V36.6531H73.2896C73.8992 36.6531 74.4947 36.6531 75.0833 36.6179H67.6143Z" fill="#84C551"/>
<path id="Vector_3" d="M109.206 6.36154V3.19487C109.192 2.7716 109.265 2.34999 109.42 1.95616C109.574 1.56233 109.808 1.20463 110.105 0.90518C110.403 0.605725 110.758 0.370887 111.149 0.215187C111.54 0.0594866 111.959 -0.0137742 112.38 -4.61343e-05H154.819C155.24 -0.0148172 155.659 0.0577462 156.051 0.213077C156.443 0.368408 156.798 0.603185 157.096 0.902855C157.394 1.20252 157.627 1.56065 157.781 1.95496C157.936 2.34926 158.008 2.77133 157.993 3.19487V6.36154C158.006 6.78168 157.933 7.19997 157.778 7.59057C157.624 7.98117 157.392 8.33581 157.096 8.63255C156.795 8.92665 156.438 9.15685 156.047 9.3095C155.656 9.46215 155.238 9.53411 154.819 9.52116H139.902V45.1728C139.91 45.5838 139.833 45.992 139.675 46.371C139.517 46.75 139.281 47.0914 138.984 47.3733C138.692 47.6647 138.345 47.8941 137.964 48.048C137.582 48.2019 137.174 48.277 136.763 48.2689H130.457C130.045 48.2775 129.635 48.2027 129.253 48.0488C128.87 47.8949 128.522 47.6652 128.229 47.3733C127.932 47.0914 127.696 46.75 127.538 46.371C127.38 45.992 127.303 45.5838 127.311 45.1728V9.54234H112.394C111.975 9.55514 111.559 9.48305 111.169 9.33038C110.779 9.17771 110.423 8.94757 110.124 8.65369C109.82 8.35709 109.582 7.99997 109.424 7.60525C109.266 7.21052 109.192 6.7869 109.206 6.36154Z" fill="#1F1B1C"/>
<path id="Vector_4" d="M0.938933 67.7275V58.6718C0.937469 58.5778 0.954672 58.4844 0.989567 58.3972C1.02446 58.31 1.07637 58.2307 1.14215 58.164C1.20513 58.0997 1.28046 58.049 1.36359 58.015C1.44673 57.9811 1.53587 57.9645 1.62557 57.9665H3.04093C3.12951 57.9651 3.21748 57.9819 3.2994 58.0158C3.38132 58.0498 3.45551 58.1002 3.51742 58.164C3.5832 58.2307 3.63502 58.31 3.66992 58.3972C3.70481 58.4844 3.72202 58.5778 3.72055 58.6718V66.3381H10.0265C10.1169 66.3358 10.2068 66.3528 10.2901 66.388C10.3735 66.4233 10.4485 66.476 10.51 66.5426C10.6352 66.6734 10.7054 66.8477 10.7062 67.0293V67.7346C10.7037 67.9137 10.6336 68.0851 10.51 68.2141C10.4471 68.2784 10.3717 68.3292 10.2885 68.3631C10.2054 68.3971 10.1162 68.4136 10.0265 68.4116H1.6396C1.46017 68.4128 1.28716 68.3446 1.15618 68.2212C1.08497 68.161 1.02833 68.0853 0.990679 67.9997C0.953031 67.9142 0.935337 67.821 0.938933 67.7275Z" fill="#84C551"/>
<path id="Vector_5" d="M12.3598 67.4807C11.6389 66.6245 11.2432 65.5386 11.2432 64.4163C11.2432 63.2939 11.6389 62.208 12.3598 61.3519C13.249 60.661 14.3405 60.2863 15.4637 60.2863C16.587 60.2863 17.6786 60.661 18.5677 61.3519C18.9537 61.7421 19.2526 62.2106 19.4447 62.7262C19.6368 63.2418 19.7176 63.7927 19.6818 64.3422V64.7583C19.6838 64.8789 19.6384 64.9955 19.5556 65.0827C19.5134 65.125 19.463 65.1581 19.4076 65.1799C19.3521 65.2018 19.2928 65.2119 19.2333 65.2097H13.7891C13.7937 65.6912 13.976 66.1537 14.3006 66.5074C14.7001 66.8162 15.2004 66.9622 15.702 66.9164C15.9388 66.9448 16.1791 66.9204 16.4055 66.8448C16.632 66.7692 16.8391 66.6444 17.0122 66.4792C17.1159 66.3439 17.2484 66.2338 17.4 66.1569C17.5516 66.08 17.7183 66.0383 17.888 66.0348H18.9671C19.0266 66.0326 19.0859 66.0428 19.1414 66.0646C19.1968 66.0865 19.2471 66.1196 19.2894 66.1618C19.331 66.2046 19.3636 66.2553 19.3853 66.3111C19.407 66.3668 19.4173 66.4264 19.4155 66.4862C19.4155 67.8968 18.0983 68.6021 15.4637 68.6021C14.3231 68.6519 13.2086 68.2493 12.3598 67.4807ZM13.7612 63.644H17.1243C17.0753 62.5015 16.5217 61.9302 15.4497 61.9302C14.3777 61.9302 13.8452 62.5015 13.7821 63.644H13.7612Z" fill="#84C551"/>
<path id="Vector_6" d="M24.7618 66.8177L25.7568 66.726H26.0231C26.0825 66.7242 26.1416 66.7346 26.197 66.7564C26.2524 66.7782 26.3029 66.8111 26.3453 66.853C26.3868 66.8944 26.4194 66.9439 26.4411 66.9985C26.4627 67.0531 26.4731 67.1115 26.4714 67.1703V67.9532C26.4707 68.0064 26.4592 68.0589 26.4375 68.1074C26.4158 68.156 26.3845 68.1995 26.3453 68.2353C26.2585 68.3224 26.1449 68.3771 26.0231 68.3904C25.3869 68.5011 24.7417 68.5507 24.0962 68.5386C22.0316 68.5386 20.9969 67.4478 20.9923 65.2661V58.4108C20.9902 58.2902 21.0356 58.1736 21.1184 58.0864C21.1599 58.0456 21.2093 58.0139 21.2636 57.9933C21.3178 57.9726 21.3757 57.9635 21.4337 57.9665H23.0523C23.1102 57.9635 23.168 57.9726 23.2223 57.9933C23.2765 58.0139 23.326 58.0456 23.3675 58.0864C23.4503 58.1736 23.4956 58.2902 23.4936 58.4108V60.844H25.5046C25.6212 60.8412 25.7342 60.8842 25.8198 60.9639C25.8618 61.0064 25.8947 61.0571 25.9164 61.1129C25.9381 61.1687 25.9481 61.2285 25.9459 61.2884V62.1488C25.9481 62.2087 25.9381 62.2684 25.9164 62.3242C25.8947 62.38 25.8618 62.4307 25.8198 62.4732C25.7784 62.514 25.7289 62.5457 25.6746 62.5664C25.6204 62.587 25.5625 62.5961 25.5046 62.5931H23.4936V65.2591C23.4657 65.6693 23.5879 66.0756 23.837 66.4016C23.9493 66.5375 24.0911 66.6457 24.2514 66.7178C24.4117 66.7899 24.5863 66.8241 24.7618 66.8177Z" fill="#84C551"/>
<path id="Vector_7" d="M29.2535 57.9665C29.8701 57.9665 30.1854 58.1922 30.1854 58.6718C30.1793 58.8253 30.1436 58.9762 30.0803 59.1161L29.2185 61.3095C29.1229 61.543 28.9683 61.7473 28.77 61.9019C28.5719 62.0625 28.3237 62.1474 28.0694 62.1417H27.7821C27.4809 62.1417 27.2916 62.0782 27.2076 61.9513C27.1322 61.8333 27.0909 61.6966 27.0884 61.5563C27.0812 61.4248 27.0812 61.2929 27.0884 61.1614L27.5159 58.8199C27.5687 58.5782 27.7117 58.3662 27.9152 58.2275C28.1171 58.0738 28.3628 57.9897 28.6159 57.9877L29.2535 57.9665Z" fill="#84C551"/>
<path id="Vector_8" d="M31.2148 62.6284C31.2148 61.0533 32.4714 60.2681 34.9844 60.2728C37.6189 60.2728 38.9432 60.9781 38.9432 62.3886C38.9441 62.4472 38.9334 62.5054 38.9116 62.5598C38.8897 62.6141 38.8572 62.6635 38.816 62.7049C38.7748 62.7464 38.7258 62.7791 38.6718 62.801C38.6178 62.823 38.56 62.8339 38.5018 62.8329H37.4227C37.2529 62.834 37.0853 62.7951 36.9332 62.7191C36.7811 62.6432 36.6488 62.5324 36.5469 62.3957C36.3597 62.2235 36.137 62.095 35.8948 62.0194C35.6526 61.9439 35.3967 61.923 35.1456 61.9584C34.2113 61.9584 33.7442 62.1935 33.7442 62.6637C33.7442 62.8823 33.9334 63.0586 34.3048 63.2068C34.7592 63.3772 35.2283 63.5047 35.7061 63.5876C36.2476 63.6989 36.7832 63.8378 37.3107 64.0037C37.8355 64.1574 38.316 64.4356 38.712 64.8148C38.8963 64.9988 39.041 65.219 39.1374 65.4616C39.2338 65.7042 39.2798 65.9641 39.2725 66.2253C39.2725 67.791 37.9459 68.5738 35.2928 68.5738C32.6396 68.5738 31.3153 67.8686 31.32 66.4581C31.318 66.3983 31.3283 66.3387 31.3502 66.283C31.372 66.2274 31.4049 66.1768 31.447 66.1345C31.489 66.0922 31.5392 66.059 31.5945 66.037C31.6498 66.015 31.709 66.0047 31.7684 66.0067H32.8474C33.0177 66.007 33.1856 66.0473 33.3376 66.1244C33.4897 66.2016 33.6218 66.3134 33.7233 66.451C33.9116 66.6215 34.1343 66.7489 34.3762 66.8244C34.6181 66.8999 34.8735 66.9217 35.1246 66.8883C36.2247 66.8883 36.7782 66.6555 36.7782 66.183C36.7782 65.9644 36.589 65.781 36.2176 65.6399C35.7617 65.4709 35.2931 65.3388 34.8163 65.245C34.2698 65.1321 33.7373 64.9911 33.2048 64.8289C32.6929 64.6738 32.2263 64.3954 31.8455 64.0178C31.6494 63.8437 31.492 63.63 31.3833 63.3907C31.2747 63.1513 31.2173 62.8916 31.2148 62.6284Z" fill="#84C551"/>
<path id="Vector_9" d="M46.259 66.7895C45.9122 66.4224 45.6437 65.9877 45.4702 65.5122C45.2967 65.0367 45.2217 64.5305 45.25 64.0248C45.2226 63.5077 45.3117 62.991 45.5107 62.5135C45.7097 62.036 46.0134 61.6099 46.3991 61.2672C47.3416 60.5466 48.5112 60.1934 49.6921 60.2727C50.4247 60.2784 51.1547 60.3588 51.8712 60.5125C52.4632 60.6139 53.0355 60.8091 53.5668 61.0909V67.8262C53.6016 68.2829 53.5231 68.741 53.3385 69.1596C53.1538 69.5781 52.8687 69.944 52.5088 70.2242C51.6192 70.7913 50.5751 71.0626 49.524 71C48.5154 71.0477 47.5081 70.8819 46.5672 70.5133C46.2519 70.3881 45.9828 70.1677 45.7971 69.8822C45.6114 69.5968 45.5182 69.2603 45.5302 68.9194C45.528 68.8595 45.5381 68.7998 45.5598 68.744C45.5815 68.6882 45.6143 68.6374 45.6563 68.595C45.6988 68.553 45.7492 68.5202 45.8046 68.4984C45.86 68.4765 45.9192 68.4663 45.9787 68.4681H47.0576C47.2163 68.4631 47.374 68.4947 47.5186 68.5608C47.6631 68.6268 47.7907 68.7254 47.8915 68.8488C48.0728 69.0327 48.2929 69.1733 48.5354 69.2599C48.778 69.3466 49.0369 69.3773 49.2928 69.3496C49.7847 69.4029 50.2798 69.2833 50.6941 69.011C50.8349 68.8507 50.9406 68.6624 51.0046 68.4583C51.0686 68.2542 51.0893 68.0389 51.0655 67.8262V67.4877C50.3612 67.6765 49.6362 67.776 48.9074 67.7839C48.4223 67.8053 47.9378 67.7283 47.4828 67.5574C47.0278 67.3866 46.6117 67.1255 46.259 66.7895ZM49.545 62.0359C48.4029 62.0359 47.8284 62.6918 47.8284 64.0248C47.8284 65.3578 48.389 66.0207 49.503 66.0207C50.0308 66.0129 50.5556 65.9394 51.0655 65.8021V62.1981C50.5684 62.0744 50.0568 62.0198 49.545 62.0359Z" fill="#84C551"/>
<path id="Vector_10" d="M60.8252 62.2687L59.7111 62.2264C59.3397 62.2529 58.9791 62.3638 58.6563 62.5507C58.3335 62.7376 58.0569 62.9956 57.8473 63.3054V67.9532C57.849 68.0119 57.8387 68.0704 57.817 68.125C57.7953 68.1796 57.7627 68.2292 57.7213 68.2706C57.6798 68.3114 57.6303 68.3431 57.576 68.3637C57.5218 68.3844 57.4638 68.3934 57.4059 68.3904H55.7874C55.7294 68.3948 55.671 68.3863 55.6165 68.3656C55.5621 68.3449 55.5128 68.3125 55.4721 68.2706C55.4306 68.2292 55.3981 68.1796 55.3764 68.125C55.3547 68.0704 55.3444 68.0119 55.346 67.9532V60.9004C55.3438 60.8406 55.3539 60.7808 55.3756 60.725C55.3973 60.6692 55.4301 60.6185 55.4721 60.576C55.5132 60.5343 55.5625 60.5015 55.6167 60.4797C55.6709 60.4578 55.729 60.4474 55.7874 60.4491H57.4059C57.4643 60.447 57.5226 60.4572 57.5769 60.4791C57.6312 60.5009 57.6804 60.5339 57.7213 60.576C57.7632 60.6185 57.796 60.6692 57.8177 60.725C57.8394 60.7808 57.8495 60.8406 57.8473 60.9004V61.3588C58.2766 61.0307 58.748 60.7627 59.2487 60.5619C59.8246 60.371 60.4293 60.2827 61.0354 60.3009C61.1548 60.3011 61.2698 60.3464 61.3577 60.4279C61.3985 60.4698 61.4306 60.5194 61.4523 60.5739C61.4739 60.6284 61.4847 60.6866 61.4838 60.7453V61.8526C61.4868 61.9115 61.477 61.9703 61.4553 62.0251C61.4335 62.0799 61.4002 62.1293 61.3577 62.1699C61.3152 62.2119 61.2648 62.2447 61.2094 62.2665C61.1541 62.2883 61.0948 62.2987 61.0354 62.2969L60.8252 62.2687Z" fill="#84C551"/>
<path id="Vector_11" d="M63.2148 67.4948C62.4867 66.6337 62.0869 65.5399 62.0869 64.4092C62.0869 63.2785 62.4867 62.1847 63.2148 61.3236C64.1589 60.64 65.2924 60.2722 66.4554 60.2722C67.6183 60.2722 68.7519 60.64 69.696 61.3236C70.424 62.1847 70.8238 63.2785 70.8238 64.4092C70.8238 65.5399 70.424 66.6337 69.696 67.4948C68.7487 68.1704 67.6163 68.5333 66.4554 68.5333C65.2944 68.5333 64.1621 68.1704 63.2148 67.4948ZM65.0435 62.5155C64.7487 63.1001 64.5951 63.7465 64.5951 64.4021C64.5951 65.0577 64.7487 65.7042 65.0435 66.2888C65.4153 66.6626 65.9193 66.8725 66.4449 66.8725C66.9704 66.8725 67.4744 66.6626 67.8462 66.2888C68.141 65.7042 68.2946 65.0577 68.2946 64.4021C68.2946 63.7465 68.141 63.1001 67.8462 62.5155C67.4709 62.1485 66.9682 61.9431 66.4449 61.9431C65.9215 61.9431 65.4188 62.1485 65.0435 62.5155Z" fill="#84C551"/>
<path id="Vector_12" d="M71.405 61.0627C71.3696 60.96 71.3461 60.8535 71.335 60.7453C71.335 60.5337 71.4611 60.4279 71.6993 60.4209H73.0446C73.2596 60.4184 73.4709 60.4771 73.6542 60.5902C73.8255 60.7014 73.954 60.8681 74.0186 61.0627L75.2026 64.984L76.3728 61.0627C76.4125 60.8743 76.5174 60.7064 76.6689 60.5888C76.8204 60.4712 77.0085 60.4117 77.1995 60.4209H78.4748C78.6665 60.4087 78.856 60.4671 79.0082 60.5852C79.1603 60.7032 79.2645 60.8729 79.3015 61.0627L80.4717 64.984L81.6558 61.0627C81.7206 60.8662 81.8521 60.6989 82.0271 60.5902C82.2096 60.4753 82.4215 60.4165 82.6367 60.4209H83.975C84.2132 60.4209 84.3323 60.5337 84.3394 60.7453C84.3361 60.8539 84.3147 60.9612 84.2762 61.0627L82.0832 67.7558C82.0211 67.9478 81.8948 68.1122 81.7259 68.2212C81.5592 68.331 81.3645 68.3898 81.1653 68.3905H80.1494C79.947 68.3899 79.7493 68.3285 79.5818 68.2141C79.4143 68.1084 79.2901 67.9458 79.2315 67.7558L77.8301 63.4183L76.4288 67.7558C76.3674 67.9463 76.2407 68.1087 76.0715 68.2141C75.9069 68.3291 75.7113 68.3907 75.511 68.3905H74.509C74.312 68.39 74.1194 68.3312 73.9554 68.2212C73.7847 68.1126 73.656 67.9483 73.5911 67.7558L71.405 61.0627Z" fill="#84C551"/>
<path id="Vector_13" d="M94.3243 66.8177L95.3192 66.726H95.5855C95.6449 66.7242 95.7042 66.7346 95.7595 66.7564C95.8149 66.7782 95.8654 66.8111 95.9078 66.853C95.9493 66.8944 95.9819 66.9439 96.0036 66.9985C96.0252 67.0531 96.0356 67.1115 96.0339 67.1703V67.9532C96.0332 68.0064 96.0217 68.0589 96 68.1074C95.9784 68.156 95.947 68.1995 95.9078 68.2353C95.821 68.3224 95.7073 68.3771 95.5855 68.3904C94.9493 68.5011 94.3041 68.5507 93.6587 68.5386C91.594 68.5386 90.5594 67.4478 90.5548 65.2661V58.4108C90.5527 58.2902 90.598 58.1736 90.6808 58.0864C90.7223 58.0456 90.7718 58.0139 90.8261 57.9933C90.8803 57.9726 90.9382 57.9635 90.9962 57.9665H92.6147C92.6726 57.9635 92.7305 57.9726 92.7848 57.9933C92.8391 58.0139 92.8885 58.0456 92.93 58.0864C93.0128 58.1736 93.0581 58.2902 93.0561 58.4108V60.844H95.074C95.1882 60.843 95.2985 60.8859 95.3823 60.9639C95.4253 61.0061 95.4592 61.0566 95.4821 61.1123C95.505 61.1681 95.5163 61.228 95.5154 61.2884V62.1488C95.5163 62.2092 95.505 62.269 95.4821 62.3248C95.4592 62.3806 95.4253 62.4311 95.3823 62.4732C95.3417 62.5131 95.2934 62.5443 95.2404 62.5649C95.1874 62.5855 95.1308 62.5951 95.074 62.5931H93.0561V65.2591C93.0282 65.6693 93.1503 66.0756 93.3994 66.4016C93.5117 66.5375 93.6536 66.6457 93.8139 66.7178C93.9742 66.7899 94.1488 66.8241 94.3243 66.8177Z" fill="#84C551"/>
<path id="Vector_14" d="M97.8272 67.4948C97.0991 66.6337 96.6992 65.5399 96.6992 64.4092C96.6992 63.2785 97.0991 62.1847 97.8272 61.3236C98.7713 60.64 99.9048 60.2722 101.068 60.2722C102.231 60.2722 103.364 60.64 104.308 61.3236C105.036 62.1847 105.436 63.2785 105.436 64.4092C105.436 65.5399 105.036 66.6337 104.308 67.4948C103.361 68.1704 102.229 68.5333 101.068 68.5333C99.9068 68.5333 98.7745 68.1704 97.8272 67.4948ZM99.6559 62.5155C99.3611 63.1001 99.2075 63.7465 99.2075 64.4021C99.2075 65.0577 99.3611 65.7042 99.6559 66.2888C99.8235 66.4958 100.039 66.6586 100.283 66.763C100.527 66.8675 100.793 66.9105 101.057 66.8883C101.321 66.9087 101.587 66.8648 101.831 66.7605C102.074 66.6562 102.29 66.4944 102.459 66.2888C102.758 65.7055 102.914 65.0586 102.914 64.4021C102.914 63.7457 102.758 63.0988 102.459 62.5155C102.288 62.3134 102.071 62.1549 101.828 62.0531C101.584 61.9514 101.32 61.9093 101.057 61.9302C100.794 61.9069 100.529 61.948 100.285 62.0499C100.041 62.1518 99.8254 62.3115 99.6559 62.5155Z" fill="#84C551"/>
<path id="Vector_15" d="M107.321 66.7895C106.975 66.4224 106.706 65.9877 106.533 65.5122C106.359 65.0368 106.284 64.5306 106.312 64.0248C106.285 63.5077 106.374 62.9911 106.573 62.5135C106.772 62.036 107.076 61.6099 107.462 61.2672C108.406 60.545 109.578 60.1917 110.762 60.2728C111.492 60.2788 112.22 60.3592 112.934 60.5126C113.528 60.6154 114.102 60.8105 114.636 61.0909V67.8263C114.67 68.2835 114.591 68.742 114.405 69.1606C114.219 69.5792 113.932 69.9448 113.571 70.2242C112.684 70.7903 111.642 71.0616 110.594 71C109.585 71.049 108.577 70.8832 107.637 70.5133C107.321 70.389 107.051 70.1688 106.865 69.8831C106.679 69.5975 106.587 69.2606 106.6 68.9194C106.598 68.8596 106.608 68.8 106.63 68.7444C106.652 68.6887 106.685 68.6382 106.727 68.5958C106.769 68.5535 106.819 68.5204 106.874 68.4984C106.93 68.4764 106.989 68.4661 107.048 68.4681H108.141C108.3 68.462 108.458 68.4932 108.603 68.5593C108.748 68.6254 108.875 68.7246 108.975 68.8489C109.157 69.0319 109.377 69.1719 109.619 69.2585C109.862 69.3451 110.12 69.3763 110.376 69.3497C110.868 69.4066 111.365 69.2866 111.778 69.0111C111.92 68.8513 112.027 68.6632 112.092 68.4591C112.157 68.255 112.179 68.0394 112.156 67.8263V67.4877C111.449 67.6766 110.722 67.7761 109.991 67.7839C109.502 67.8082 109.014 67.7326 108.555 67.5617C108.096 67.3908 107.677 67.1281 107.321 66.7895ZM110.608 62.0359C109.465 62.0359 108.898 62.6918 108.898 64.0248C108.898 65.3578 109.451 66.0208 110.565 66.0208C111.096 66.013 111.623 65.9395 112.135 65.8021V62.1981C111.635 62.0746 111.122 62.02 110.608 62.0359Z" fill="#84C551"/>
<path id="Vector_16" d="M117.075 67.4807C116.354 66.6245 115.958 65.5386 115.958 64.4163C115.958 63.2939 116.354 62.208 117.075 61.3519C117.964 60.661 119.055 60.2863 120.179 60.2863C121.302 60.2863 122.393 60.661 123.282 61.3519C123.668 61.7421 123.967 62.2106 124.159 62.7262C124.352 63.2418 124.432 63.7927 124.397 64.3422V64.7583C124.399 64.8789 124.353 64.9955 124.27 65.0827C124.228 65.125 124.178 65.1581 124.122 65.1799C124.067 65.2018 124.008 65.2119 123.948 65.2097H118.504C118.509 65.6912 118.691 66.1537 119.015 66.5074C119.415 66.8162 119.915 66.9622 120.417 66.9164C120.654 66.9448 120.894 66.9204 121.12 66.8448C121.347 66.7692 121.554 66.6444 121.727 66.4792C121.831 66.3439 121.963 66.2338 122.115 66.1569C122.266 66.08 122.433 66.0383 122.603 66.0348H123.682C123.741 66.0329 123.801 66.0432 123.856 66.0652C123.911 66.0872 123.961 66.1204 124.003 66.1627C124.045 66.205 124.078 66.2556 124.1 66.3112C124.122 66.3669 124.132 66.4264 124.13 66.4862C124.13 67.8968 122.813 68.6021 120.179 68.6021C119.038 68.6519 117.923 68.2493 117.075 67.4807ZM118.476 63.644H121.839C121.79 62.5015 121.23 61.9302 120.165 61.9302C119.1 61.9302 118.56 62.5015 118.497 63.644H118.476Z" fill="#84C551"/>
<path id="Vector_17" d="M129.504 66.8177L130.492 66.726H130.765C130.885 66.724 131.001 66.7696 131.088 66.853C131.129 66.8944 131.162 66.9439 131.183 66.9985C131.205 67.0531 131.215 67.1116 131.214 67.1703V67.9532C131.213 68.0064 131.201 68.0589 131.18 68.1074C131.158 68.156 131.127 68.1995 131.088 68.2353C131 68.321 130.887 68.3755 130.765 68.3904C130.129 68.5008 129.484 68.5504 128.838 68.5386C126.769 68.5386 125.734 67.4478 125.734 65.2661V58.4108C125.732 58.2902 125.778 58.1736 125.861 58.0864C125.902 58.0456 125.951 58.0139 126.006 57.9933C126.06 57.9726 126.118 57.9635 126.176 57.9665H127.794C127.852 57.9635 127.91 57.9726 127.964 57.9933C128.019 58.0139 128.068 58.0456 128.11 58.0864C128.193 58.1736 128.238 58.2902 128.236 58.4108V60.844H130.247C130.363 60.8412 130.476 60.8842 130.562 60.9639C130.604 61.0064 130.637 61.0571 130.659 61.1129C130.68 61.1688 130.69 61.2285 130.688 61.2884V62.1488C130.69 62.2087 130.68 62.2684 130.659 62.3242C130.637 62.38 130.604 62.4307 130.562 62.4732C130.521 62.514 130.471 62.5457 130.417 62.5664C130.363 62.587 130.305 62.5961 130.247 62.5931H128.236V65.2591C128.208 65.6693 128.33 66.0757 128.579 66.4016C128.692 66.5375 128.833 66.6457 128.994 66.7178C129.154 66.79 129.329 66.8241 129.504 66.8177Z" fill="#84C551"/>
<path id="Vector_18" d="M132.398 67.9532V58.4108C132.396 58.2902 132.441 58.1736 132.524 58.0864C132.565 58.0456 132.615 58.0139 132.669 57.9933C132.723 57.9726 132.781 57.9635 132.839 57.9665H134.458C134.516 57.9635 134.573 57.9726 134.628 57.9933C134.682 58.0139 134.731 58.0456 134.773 58.0864C134.856 58.1736 134.901 58.2902 134.899 58.4108V61.3307C135.624 60.6651 136.566 60.2889 137.548 60.2728C137.967 60.2565 138.385 60.3248 138.777 60.4738C139.169 60.6228 139.528 60.8494 139.832 61.1402C140.149 61.4966 140.391 61.9143 140.543 62.3677C140.694 62.8212 140.753 63.301 140.715 63.778V67.9532C140.716 68.0109 140.706 68.0683 140.684 68.1217C140.662 68.1752 140.63 68.2234 140.589 68.2635C140.546 68.3058 140.496 68.3389 140.44 68.3607C140.385 68.3826 140.326 68.3926 140.266 68.3904H138.655C138.596 68.3921 138.538 68.3817 138.484 68.3599C138.43 68.338 138.38 68.3052 138.339 68.2635C138.298 68.2234 138.266 68.1752 138.244 68.1217C138.222 68.0683 138.212 68.0109 138.213 67.9532V63.778C138.213 62.6143 137.751 62.0359 136.812 62.0359C136.437 62.0735 136.074 62.1851 135.742 62.3642C135.41 62.5433 135.116 62.7864 134.878 63.0797V67.9532C134.88 68.0109 134.869 68.0683 134.847 68.1217C134.826 68.1752 134.793 68.2234 134.752 68.2635C134.711 68.3052 134.662 68.338 134.607 68.3599C134.553 68.3817 134.495 68.3921 134.437 68.3904H132.818C132.76 68.3921 132.702 68.3817 132.647 68.3599C132.593 68.338 132.544 68.3052 132.503 68.2635C132.465 68.2217 132.437 68.1726 132.419 68.1192C132.4 68.0659 132.393 68.0094 132.398 67.9532Z" fill="#84C551"/>
<path id="Vector_19" d="M143.175 67.4807C142.455 66.6239 142.061 65.5382 142.061 64.4163C142.061 63.2943 142.455 62.2087 143.175 61.3519C144.027 60.5925 145.143 60.2044 146.279 60.2728C147.408 60.2039 148.519 60.5809 149.376 61.3236C149.762 61.7139 150.061 62.1825 150.253 62.6981C150.445 63.2137 150.526 63.7645 150.49 64.314V64.7301C150.492 64.8508 150.447 64.9673 150.364 65.0546C150.322 65.0968 150.271 65.1299 150.216 65.1517C150.16 65.1736 150.101 65.1837 150.042 65.1815H144.576C144.578 65.6622 144.758 66.1248 145.081 66.4792C145.481 66.7867 145.981 66.9327 146.482 66.8883C146.72 66.9158 146.961 66.8909 147.189 66.8154C147.416 66.7399 147.624 66.6155 147.799 66.451C147.902 66.3146 148.034 66.2036 148.186 66.1266C148.338 66.0496 148.505 66.0086 148.675 66.0067H149.747C149.807 66.0045 149.866 66.0146 149.921 66.0365C149.977 66.0583 150.027 66.0913 150.07 66.1336C150.111 66.1763 150.144 66.2271 150.165 66.2829C150.187 66.3386 150.197 66.3982 150.196 66.458C150.196 67.8686 148.878 68.5738 146.244 68.5738C145.119 68.6221 144.019 68.2304 143.175 67.4807ZM144.576 63.644H147.933C147.883 62.5015 147.33 61.9302 146.258 61.9302C145.186 61.9302 144.639 62.5015 144.576 63.644Z" fill="#84C551"/>
<path id="Vector_20" d="M157.293 62.2687L156.179 62.2264C155.808 62.2535 155.447 62.3645 155.125 62.5514C154.802 62.7382 154.525 62.996 154.315 63.3054V67.9532C154.317 68.0119 154.307 68.0704 154.285 68.125C154.263 68.1796 154.231 68.2292 154.189 68.2706C154.148 68.3114 154.098 68.3431 154.044 68.3638C153.99 68.3844 153.932 68.3934 153.874 68.3904H152.284C152.225 68.3948 152.167 68.3864 152.113 68.3656C152.058 68.3449 152.009 68.3125 151.968 68.2706C151.927 68.2292 151.894 68.1796 151.872 68.125C151.851 68.0704 151.84 68.0119 151.842 67.9532V60.9005C151.84 60.8406 151.85 60.7809 151.872 60.7251C151.893 60.6692 151.926 60.6185 151.968 60.576C152.009 60.5343 152.059 60.5015 152.113 60.4797C152.167 60.4579 152.225 60.4474 152.284 60.4491H153.902C153.961 60.4461 154.019 60.4559 154.073 60.4778C154.128 60.4997 154.177 60.5332 154.217 60.576C154.259 60.6185 154.292 60.6692 154.314 60.7251C154.336 60.7809 154.346 60.8406 154.343 60.9005V61.3589C154.773 61.0308 155.244 60.7627 155.745 60.5619C156.321 60.3716 156.925 60.2833 157.531 60.301C157.651 60.3011 157.766 60.3465 157.854 60.4279C157.895 60.4698 157.927 60.5194 157.948 60.5739C157.97 60.6284 157.981 60.6866 157.98 60.7453V61.8526C157.983 61.9115 157.973 61.9704 157.951 62.0251C157.93 62.0799 157.896 62.1293 157.854 62.17C157.811 62.2119 157.761 62.2447 157.706 62.2665C157.65 62.2884 157.591 62.2987 157.531 62.2969L157.293 62.2687Z" fill="#84C551"/>
<path id="Vector_21" d="M54.7438 36.6179V36.6602L52.5156 45.1729C52.4429 45.5043 52.403 45.8421 52.3965 46.1814C52.4309 46.6727 52.6255 47.1388 52.95 47.5073C53.1781 47.7762 53.4673 47.9859 53.7929 48.1185C54.1186 48.251 54.4712 48.3027 54.8208 48.269H61.4141C62.3149 48.2572 63.1856 47.9418 63.8874 47.3733C64.6415 46.8217 65.1736 46.0157 65.3868 45.1023L67.615 36.639V36.6038L54.7438 36.6179Z" fill="#21603F"/>
<path id="Vector_22" d="M101.611 0.035293C101.45 0.021276 101.289 0.021276 101.128 0.035293H88.7821H81.327C74.3203 0.289192 69.0537 2.02417 65.527 5.24022C65.3589 5.38833 65.1977 5.53641 65.0435 5.69863C63.0158 7.74632 61.5858 10.3153 60.9096 13.1252L54.7578 36.6108H75.0771C82.0511 36.3569 87.3014 34.636 90.828 31.4482C90.9962 31.3001 91.1573 31.1449 91.3185 30.9898C93.3781 28.9387 94.8332 26.3535 95.5225 23.5209L101.674 0.035293H101.611ZM83.3519 20.3683C82.9398 21.9756 82.0991 23.4389 80.9206 24.6C80.7595 24.7551 80.5913 24.9103 80.4162 25.0584L80.1219 25.2912C78.7505 26.3418 77.1044 26.9668 75.3854 27.0896H70.0953L73.0311 16.2848C73.4342 14.6833 74.2598 13.2213 75.4204 12.0532C75.5816 11.898 75.7497 11.7428 75.9249 11.5947L76.2612 11.3197C77.6325 10.2691 79.2786 9.64405 80.9977 9.5212H86.2947L83.3519 20.3683Z" fill="#84C551"/>
<path id="Vector_23" d="M98.6471 23.6479C97.6245 28.0042 95.0331 31.8239 91.3742 34.368V36.5896V45.0529C91.3585 45.4724 91.429 45.8907 91.5811 46.2816C91.7332 46.6724 91.9638 47.0275 92.2583 47.3247C92.5529 47.6218 92.9051 47.8547 93.2931 48.0087C93.6811 48.1627 94.0965 48.2345 94.5133 48.2196H100.819C101.233 48.2262 101.644 48.1504 102.029 47.9967C102.414 47.843 102.765 47.6144 103.061 47.3239C103.362 47.0439 103.6 46.7031 103.761 46.3239C103.921 45.9447 104.001 45.5356 103.993 45.1235V3.24426L98.6471 23.6479Z" fill="#1F1B1C"/>
</g>
</g>
<defs>
<clipPath id="clip0_31157_9567">
<rect width="158" height="71" fill="white"/>
</clipPath>
</defs>
</svg>
